<?xml version="1.0" encoding="utf-8"?>
<!-- Generator: Adobe Illustrator 23.0.6, SVG Export Plug-In . SVG Version: 6.00 Build 0)  -->
<svg version="1.1" id="Layer_1" xmlns="http://www.w3.org/2000/svg" xmlns:xlink="http://www.w3.org/1999/xlink" x="0px" y="0px"
	 viewBox="0 0 3556 677.7" style="enable-background:new 0 0 3556 677.7;" xml:space="preserve">
<style type="text/css">
	.st0{fill:#c84800;opacity:0.2}
</style>
<path class="st0" d="M632.8,462.9c-9.1,8-129.6,112.3-291.1,166.7c-56.4,19-110.2,29.3-116.6,30.5c-47.4,8.9-84.4,11.8-119.3,14.5
	c-42.9,3.3-79.1,4.2-105.7,4.3C0,452.6,0,226.3,0,0c316.4,0,632.8,0,949.3,0c-10.1,18-25.3,45-43.8,77.9
	C844,187,813.2,241.6,803.5,257.6C784.6,288.7,729.7,377.7,632.8,462.9z"/>
<path class="st0" d="M895.8,629.6"/>
<path class="st0" d="M3556,456.7c-10.9-22.2-30.4-55.3-64.3-86.1c-27.4-24.9-52.6-37.9-81.4-52.4c-44.7-22.6-81-33.2-121.3-44.6
	c-33.2-9.4-78.2-20.5-132.8-28.7c-116.4-17.8-206.1-47.9-266.3-72.3c-80.2-32.5-120.1-59.5-144.3-78c-44.3-33.8-75.3-68.9-95.2-94.6
	c301.9,0,603.7,0,905.6,0V456.7z"/>
</svg>
