<?xml version="1.0" encoding="utf-8"?>
<!-- Generator: Adobe Illustrator 16.0.0, SVG Export Plug-In . SVG Version: 6.00 Build 0)  -->
<!DOCTYPE svg PUBLIC "-//W3C//DTD SVG 1.1//EN" "http://www.w3.org/Graphics/SVG/1.1/DTD/svg11.dtd">
<svg version="1.1" id="Layer_1" xmlns="http://www.w3.org/2000/svg" xmlns:xlink="http://www.w3.org/1999/xlink" x="0px" y="0px"
	 width="580.268px" height="408px" viewBox="15.866 192 580.268 408" enable-background="new 15.866 192 580.268 408"
	 xml:space="preserve">
<path fill="#fff" d="M584.009,255.838c-6.674-25.128-26.337-44.918-51.302-51.634C487.455,192,306,192,306,192
	s-181.454,0-226.707,12.204c-24.966,6.717-44.628,26.506-51.302,51.634c-12.125,45.546-12.125,140.574-12.125,140.574
	s0,95.028,12.125,140.574c6.673,25.128,26.336,44.094,51.302,50.81C124.546,600,306,600,306,600s181.454,0,226.707-12.204
	c24.965-6.716,44.628-25.682,51.302-50.81c12.125-45.546,12.125-140.574,12.125-140.574S596.134,301.384,584.009,255.838z
	 M246.654,482.69V310.134l151.66,86.28L246.654,482.69L246.654,482.69z"/>
</svg>
