<?xml version="1.0" encoding="utf-8"?>
<!-- Generator: Adobe Illustrator 23.0.6, SVG Export Plug-In . SVG Version: 6.00 Build 0)  -->
<svg version="1.1" id="Layer_1" xmlns="http://www.w3.org/2000/svg" xmlns:xlink="http://www.w3.org/1999/xlink" x="0px" y="0px"
	 viewBox="0 0 3556 544.7" style="enable-background:new 0 0 3556 544.7;" xml:space="preserve">
<style type="text/css">
	.st0{fill:#b0002e;opacity:0.2}
	.st1{fill:#b0002e;opacity:0.2}
</style>
<path class="st0" d="M3556,551.6H0c0-91.3,0-182.6,0-274c80.3-19.9,182.8-36.7,301.8-36c52.1,0.3,157.1,4.3,283.3,34.8
	c96.7,23.4,187.4,57.8,289.6,96.7c26.7,10.2,55.2,21.3,109.4,41.5c88.1,32.8,132.2,49.2,162.4,58.7c46.3,14.5,172.5,52.7,330.8,47.5
	c56.6-1.9,105.1-8.9,133.6-13c75.8-11,134.6-25.7,163.3-33.4c33.9-9.1,75.4-23.1,158.6-51.1c53.1-17.9,97.8-33.5,109.6-37.6
	c159.8-55.6,322.8-154.3,366.3-175.3C2510.5,161,2823.9,12.7,3213.1,0.7c148.4-4.6,268.9,11.8,342.9,25
	C3556,201,3556,376.3,3556,551.6z"/>
<path class="st1" d="M1982.8,911.6"/>
<path class="st1" d="M2117.4,501.5"/>
</svg>
