<?xml version="1.0" encoding="utf-8"?>
<!-- Generator: Adobe Illustrator 23.0.6, SVG Export Plug-In . SVG Version: 6.00 Build 0)  -->
<svg version="1.1" id="Layer_1" xmlns="http://www.w3.org/2000/svg" xmlns:xlink="http://www.w3.org/1999/xlink" x="0px" y="0px"
	 viewBox="0 0 1700 4000" style="enable-background:new 0 0 1700 4000;" xml:space="preserve">
<style type="text/css">
	.st0{fill:#752A24;}
	.st1{fill:#FFFFFF;}
	.st2{fill:#FDFEFF;}
</style>
<path class="st0" d="M1953.3,1744.7"/>
<path class="st1" d="M1702.2,4000c-6.4-54.3-12.7-108.6-19.1-162.8c-10.4-86.5-23.4-155.1-33.9-203.5
	c-10.7-49.2-19.3-79.6-28.1-106.4c-11.6-35.4-23-63-32.5-85.6c-18.2-43.8-28.5-62.9-42.8-94.3c-18.5-40.6-33.1-80.8-62.1-161.3
	c-28.5-78.9-44.6-130.6-50.1-148.5c-5.3-17.3-9.9-32.6-13.8-46.1c-21.6-74.3-32.3-111.5-36.4-148.8c-4.5-41.5-10.3-101.7,11.9-173.2
	c14.4-46.3,35.6-81.1,51.7-103.6c35.4-66.5,54.3-124,65-163.8c22.4-83.4,25.7-153.1,31.1-265.4c2.7-57.5,3.1-104.9,3-136.7
	c-516.2,0-1032.3,0-1548.5,0v2000C565.9,4000,1134.1,4000,1702.2,4000z"/>
<path d="M1815.5,1873"/>
<path class="st2" d="M1909.4,2746.4"/>
<path class="st1" d="M1704.5,0c-6.4,54.3-12.7,108.6-19.1,162.8c-10.4,86.5-23.4,155.1-33.9,203.5c-10.7,49.2-19.3,79.6-28.1,106.4
	c-11.6,35.4-23,63-32.5,85.6c-18.2,43.8-28.5,62.9-42.8,94.3c-18.5,40.6-33.1,80.8-62.1,161.3c-28.5,78.9-44.6,130.6-50.1,148.5
	c-5.3,17.3-9.9,32.6-13.8,46.1c-21.6,74.3-32.3,111.5-36.4,148.8c-4.5,41.5-10.3,101.7,11.9,173.2c14.4,46.3,35.6,81.1,51.7,103.6
	c35.4,66.5,54.3,124,65,163.8c22.4,83.4,25.7,153.1,31.1,265.4c2.7,57.5,3.1,104.9,3,136.7c-516.2,0-1032.3,0-1548.5,0V0
	C568.2,0,1136.3,0,1704.5,0z"/>
</svg>
